# xmcd CD database file
#
# Track frame offsets:
#	150
#	17832
#	29041
#	39513
#	53712
#	69276
#	83451
#	97373
#	109091
#	121246
#	136134
#	151712
#	167110
#	182014
#	197901
#	211322
#	225863
#	243608
#	260914
#	272589
#
# Disc length: 3796 seconds
#
# Revision: 0
# Processed by: cddbd v1.5.1PL0 Copyright (c) Steve Scherf et al.
# Submitted via: CDex 1.51
#
DISCID=110ed214
DTITLE=Mary Duff - The Ultimate Collection [CD1)
DYEAR=2005
DGENRE=Country
TTITLE0=Yellow Roses
TTITLE1=Single Girl
TTITLE2=Lipstick On Your Collar
TTITLE3=Everly Brothers Medley
TTITLE4=Take Me Home Country Roads
TTITLE5=Rose Garden
TTITLE6=Have You Ever Been Lonely (with Daniel O'Donnel)
TTITLE7=Where The Boys Are
TTITLE8=Crazy
TTITLE9=Heartbreaker
TTITLE10=Walk The Way The Wind Blows
TTITLE11=Forever And Ever Amen
TTITLE12=Will You Walk With Me
TTITLE13=Time To Learn
TTITLE14=Talking In Your Sleep
TTITLE15=I'll Be Your San Antone Rose
TTITLE16=Silver And Gold
TTITLE17=Deep Water
TTITLE18=Walk Right Back (with Daniel O'Donnel)
TTITLE19=It's In His Kiss (The Shoop Shoop Song)
EXTD=YEAR: 2005
EXTT0=
EXTT1=
EXTT2=
EXTT3=
EXTT4=
EXTT5=
EXTT6=
EXTT7=
EXTT8=
EXTT9=
EXTT10=
EXTT11=
EXTT12=
EXTT13=
EXTT14=
EXTT15=
EXTT16=
EXTT17=
EXTT18=
EXTT19=
PLAYORDER=
